<svg width="6" height="21" viewBox="0 0 6 21" fill="none" xmlns="http://www.w3.org/2000/svg">
<path d="M0.761719 15.7617C1.26953 15.2539 1.85547 15 2.51953 15C3.18359 15 3.76953 15.2539 4.27734 15.7617C4.78516 16.2695 5.03906 16.8555 5.03906 17.5195C5.03906 18.1836 4.78516 18.7695 4.27734 19.2773C3.76953 19.7852 3.18359 20.0391 2.51953 20.0391C1.85547 20.0391 1.26953 19.7852 0.761719 19.2773C0.253906 18.7695 0 18.1836 0 17.5195C0 16.8555 0.253906 16.2695 0.761719 15.7617ZM0.761719 8.26172C1.26953 7.75391 1.85547 7.5 2.51953 7.5C3.18359 7.5 3.76953 7.75391 4.27734 8.26172C4.78516 8.76953 5.03906 9.35547 5.03906 10.0195C5.03906 10.6836 4.78516 11.2695 4.27734 11.7773C3.76953 12.2852 3.18359 12.5391 2.51953 12.5391C1.85547 12.5391 1.26953 12.2852 0.761719 11.7773C0.253906 11.2695 0 10.6836 0 10.0195C0 9.35547 0.253906 8.76953 0.761719 8.26172ZM4.27734 4.27734C3.76953 4.78516 3.18359 5.03906 2.51953 5.03906C1.85547 5.03906 1.26953 4.78516 0.761719 4.27734C0.253906 3.76953 0 3.18359 0 2.51953C0 1.85547 0.253906 1.26953 0.761719 0.761719C1.26953 0.253906 1.85547 0 2.51953 0C3.18359 0 3.76953 0.253906 4.27734 0.761719C4.78516 1.26953 5.03906 1.85547 5.03906 2.51953C5.03906 3.18359 4.78516 3.76953 4.27734 4.27734Z" fill="black"/>
</svg>
